<svg width="140" height="140" viewBox="0 0 140 140" fill="none" xmlns="http://www.w3.org/2000/svg">
<g clip-path="url(#clip0_470_11)">
<path d="M70 140C108.66 140 140 108.66 140 70C140 31.3401 108.66 0 70 0C31.3401 0 0 31.3401 0 70C0 108.66 31.3401 140 70 140Z" fill="#20C6B7"/>
<path d="M85.709 59.2949L85.6816 59.2813C85.668 59.2813 85.6543 59.2676 85.6406 59.2539C85.5996 59.2129 85.5859 59.1445 85.5859 59.0898L86.9941 50.4629L93.6113 57.0801L86.7344 60.0059C86.7207 60.0195 86.6934 60.0195 86.6797 60.0195H86.6523C86.6387 60.0195 86.6387 60.0059 86.6113 59.9922C86.3652 59.7051 86.0508 59.4727 85.709 59.2949ZM95.3066 58.7617L102.389 65.8438C103.852 67.3203 104.59 68.0449 104.863 68.9063C104.904 69.0293 104.932 69.1523 104.959 69.2891L88.0469 62.1113C88.0332 62.1113 88.0332 62.0977 88.0195 62.0977C87.9512 62.0703 87.8691 62.043 87.8691 61.9746C87.8691 61.9062 87.9512 61.8789 88.0195 61.8516L88.0469 61.8379L95.3066 58.7617ZM104.672 71.5449C104.303 72.2285 103.592 72.9395 102.389 74.1563L94.4043 82.127L84.0957 79.9805L84.041 79.9668C83.9453 79.9531 83.8496 79.9395 83.8496 79.8574C83.7676 78.9961 83.3438 78.2031 82.6602 77.6836C82.6191 77.6426 82.6328 77.5742 82.6465 77.5195V77.4922L84.5879 65.584L84.6016 65.543C84.6152 65.4473 84.6289 65.3516 84.7109 65.3516C85.5449 65.2422 86.3106 64.8047 86.8301 64.1348C86.8438 64.1211 86.8574 64.0938 86.8848 64.0801C86.9395 64.0527 87.0078 64.0801 87.0762 64.1074L104.672 71.5449ZM92.5723 83.9727L79.4473 97.0977L81.6895 83.3027V83.2891C81.6895 83.2754 81.6895 83.248 81.7031 83.2344C81.7168 83.1934 81.7715 83.166 81.8125 83.1523L81.8398 83.1387C82.332 82.9336 82.7695 82.6055 83.1113 82.1953C83.1524 82.1406 83.207 82.0996 83.2754 82.0859H83.3301L92.5723 83.9727ZM76.6856 99.8594L75.209 101.336L58.8574 77.7109C58.8574 77.6973 58.8438 77.6973 58.8438 77.6836C58.8164 77.6426 58.7891 77.6152 58.8027 77.5742C58.8027 77.5469 58.8164 77.5195 58.8438 77.4922L58.8574 77.4648C58.9121 77.3965 58.9531 77.3145 58.9941 77.2461L59.0352 77.1777C59.0625 77.1367 59.0898 77.0957 59.1309 77.0684C59.1719 77.0547 59.2266 77.0547 59.2676 77.0684L77.3828 80.8008C77.4375 80.8145 77.4785 80.8281 77.5195 80.8555C77.5469 80.8828 77.5469 80.9102 77.5606 80.9375C77.8203 81.9082 78.5176 82.7012 79.4336 83.084C79.4883 83.1113 79.4609 83.166 79.4336 83.2207C79.4199 83.248 79.4063 83.2754 79.4063 83.3027C79.1602 84.7109 77.2051 96.6465 76.6856 99.8594ZM73.5957 102.949C72.502 104.029 71.8594 104.604 71.1348 104.836C70.4238 105.068 69.6445 105.068 68.9336 104.836C68.0859 104.562 67.3477 103.838 65.8711 102.361L49.4648 85.9414L53.7578 79.2969C53.7715 79.2695 53.7988 79.2285 53.8262 79.2148C53.8672 79.1875 53.9355 79.2012 53.9902 79.2148C54.9746 79.5156 56.0273 79.4609 56.9844 79.0645C57.0391 79.0508 57.0801 79.0371 57.1211 79.0645L57.1758 79.1191L73.5957 102.949ZM47.8789 84.3555L44.1191 80.5957L51.5566 77.4238C51.5703 77.4102 51.5977 77.4102 51.6113 77.4102C51.6797 77.4102 51.707 77.4785 51.7481 77.5332C51.8164 77.6426 51.8984 77.7656 51.9805 77.875L52.0078 77.9023C52.0352 77.9297 52.0215 77.9707 51.9941 77.998L47.8789 84.3555ZM42.4375 78.9141L37.666 74.1426C36.8594 73.3359 36.2715 72.7481 35.8613 72.2422L50.3535 75.25C50.3672 75.25 50.3945 75.25 50.4082 75.2637C50.5039 75.2773 50.5996 75.291 50.5996 75.373C50.5996 75.4687 50.4902 75.5098 50.3945 75.5371L50.3535 75.5508C50.3672 75.5645 42.4375 78.9141 42.4375 78.9141ZM35.041 69.8086C35.0547 69.5078 35.1094 69.1934 35.2051 68.9063C35.4785 68.0586 36.2031 67.3203 37.6797 65.8438L43.7773 59.7461C46.5801 63.8203 49.3965 67.8945 52.2266 71.9551C52.2813 72.0234 52.3359 72.0918 52.2676 72.1465C52.0078 72.4336 51.7344 72.7617 51.543 73.1172C51.5293 73.1582 51.4883 73.1992 51.4473 73.2266C51.4199 73.2402 51.3926 73.2402 51.3652 73.2266L35.041 69.8086ZM45.4043 58.1191L53.6074 49.916C54.3731 50.2578 57.1758 51.4336 59.6914 52.5C61.5918 53.3066 63.3145 54.0313 63.8613 54.2773C63.916 54.3047 63.9707 54.3184 63.9844 54.373C63.9981 54.4004 63.9981 54.4414 63.9844 54.4824C63.7246 55.6855 64.0801 56.9434 64.9414 57.8184C64.9961 57.873 64.9414 57.9551 64.9004 58.0234L64.8731 58.0645L56.5469 70.957C56.5195 70.998 56.5059 71.0254 56.4648 71.0527C56.4238 71.0801 56.3555 71.0664 56.3145 71.0527C55.9863 70.9707 55.6582 70.916 55.3164 70.916C55.0156 70.916 54.6875 70.9707 54.3594 71.0254C54.3184 71.0254 54.291 71.0391 54.2637 71.0117C54.2363 70.9844 54.209 70.957 54.1816 70.916L45.4043 58.1191ZM55.2617 48.2617L65.8711 37.6523C67.334 36.1895 68.0723 35.4512 68.9336 35.1777C69.6445 34.9453 70.4238 34.9453 71.1348 35.1777C71.9824 35.4512 72.7207 36.1758 74.1973 37.6523L76.4941 39.9492L68.9473 51.6387C68.9336 51.666 68.9063 51.707 68.8789 51.7207C68.8379 51.748 68.7695 51.7344 68.7148 51.7207C67.5117 51.3516 66.1992 51.6113 65.2148 52.3906C65.1602 52.4453 65.0918 52.418 65.0371 52.3906C64.0254 51.9668 56.3555 48.7266 55.2617 48.2617ZM78.0938 41.5488L85.0664 48.5215L83.3848 58.9258V58.9531C83.3848 58.9805 83.3848 58.9941 83.3711 59.0215C83.3574 59.0625 83.3164 59.0625 83.2754 59.0762C82.9199 59.1855 82.5781 59.3496 82.2773 59.5684C82.2637 59.582 82.25 59.582 82.2363 59.5957C82.2227 59.623 82.1953 59.6367 82.168 59.6367C82.1406 59.6367 82.1133 59.6367 82.0859 59.623L71.4629 55.1113L71.4492 55.0977C71.3809 55.0703 71.2988 55.043 71.2988 54.9746C71.2305 54.3867 71.0391 53.8125 70.7383 53.3066C70.6836 53.2246 70.6289 53.1289 70.6699 53.0469L78.0938 41.5488ZM70.916 57.2578L80.8691 61.4688C80.9238 61.4961 80.9785 61.5234 81.0059 61.5781C81.0195 61.6055 81.0195 61.6465 81.0059 61.6875C80.9785 61.8379 80.9512 62.002 80.9512 62.166V62.4395C80.9512 62.5078 80.8828 62.5352 80.8145 62.5625L80.8008 62.5762C79.2285 63.2461 58.6523 72.0234 58.625 72.0234C58.5977 72.0234 58.5566 72.0234 58.5293 71.9961C58.4746 71.9414 58.5293 71.8594 58.584 71.791C58.5977 71.7773 58.5977 71.7637 58.6113 71.75L66.7871 59.0762L66.8008 59.0488C66.8418 58.9668 66.8965 58.8848 66.9922 58.8848L67.0742 58.8984C67.2656 58.9258 67.4297 58.9531 67.5938 58.9531C68.8379 58.9531 69.9863 58.3516 70.6836 57.3125C70.6973 57.2852 70.7246 57.2578 70.752 57.2441C70.7793 57.2168 70.8613 57.2305 70.916 57.2578ZM59.5137 74.0332L81.9356 64.4766C81.9356 64.4766 81.9629 64.4766 82.0039 64.5039C82.127 64.627 82.2363 64.709 82.332 64.791L82.3867 64.8184C82.4277 64.8457 82.4824 64.873 82.4824 64.9141V64.9551L80.5684 76.7539L80.5547 76.7949C80.541 76.8906 80.5274 76.9863 80.4453 76.9863C79.4063 77.0547 78.4629 77.6289 77.9434 78.5313L77.9297 78.5449C77.9024 78.5859 77.875 78.627 77.834 78.6543C77.793 78.668 77.752 78.668 77.7109 78.6543L59.8281 74.9629C59.7871 74.9766 59.5273 74.0332 59.5137 74.0332Z" fill="white"/>
</g>
<defs>
<clipPath id="clip0_470_11">
<rect width="140" height="140" fill="white"/>
</clipPath>
</defs>
</svg>
