<svg width="140" height="140" viewBox="0 0 140 140" fill="none" xmlns="http://www.w3.org/2000/svg">
<path fill-rule="evenodd" clip-rule="evenodd" d="M70 0C31.325 0 0 31.325 0 70C0 100.975 20.0375 127.138 47.8625 136.413C51.3625 137.025 52.675 134.925 52.675 133.088C52.675 131.425 52.5875 125.913 52.5875 120.05C35 123.288 30.45 115.762 29.05 111.825C28.2625 109.812 24.85 103.6 21.875 101.937C19.425 100.625 15.925 97.3875 21.7875 97.3C27.3 97.2125 31.2375 102.375 32.55 104.475C38.85 115.062 48.9125 112.088 52.9375 110.25C53.55 105.7 55.3875 102.637 57.4 100.887C41.825 99.1375 25.55 93.1 25.55 66.325C25.55 58.7125 28.2625 52.4125 32.725 47.5125C32.025 45.7625 29.575 38.5875 33.425 28.9625C33.425 28.9625 39.2875 27.125 52.675 36.1375C58.275 34.5625 64.225 33.775 70.175 33.775C76.125 33.775 82.075 34.5625 87.675 36.1375C101.063 27.0375 106.925 28.9625 106.925 28.9625C110.775 38.5875 108.325 45.7625 107.625 47.5125C112.088 52.4125 114.8 58.625 114.8 66.325C114.8 93.1875 98.4375 99.1375 82.8625 100.887C85.4 103.075 87.5875 107.275 87.5875 113.838C87.5875 123.2 87.5 130.725 87.5 133.088C87.5 134.925 88.8125 137.113 92.3125 136.413C119.963 127.138 140 100.887 140 70C140 31.325 108.675 0 70 0Z" fill="white"/>
</svg>
