<svg width="140" height="140" viewBox="0 0 140 140" fill="none" xmlns="http://www.w3.org/2000/svg">
<path fill-rule="evenodd" clip-rule="evenodd" d="M42.4547 24.3607C29.2466 21.708 -1.80862 35.2296 0.0826702 50.4019C4.78111 51.7988 8.87266 53.5069 8.20398 55.257H137.445C138.222 50.0819 134.162 46.1139 136.909 41.795C137.776 40.4312 138.436 38.8753 138.895 37.3239V28.9267C138.827 28.8649 138.752 28.812 138.672 28.7722C106.58 39.1578 122.165 36.962 87.9142 28.7767C81.9711 21.3174 62.2438 15.915 53.0477 15.3125C49.5167 15.3125 42.4547 24.3607 42.4547 24.3607Z" fill="url(#paint0_linear_386_31)"/>
<path fill-rule="evenodd" clip-rule="evenodd" d="M85.0475 50.8433V54.8156H8.27465C8.34527 55.9897 6.40542 57.1947 1.18616 58.3466C5.8206 64.0845 19.501 69.5995 24.3584 70.2638C23.4889 70.4447 22.5245 70.767 21.4983 71.2061C37.0303 73.1614 55.3937 73.8235 64.5257 74.0155H94.6562C94.3318 73.9426 93.9986 73.8698 93.6543 73.7948C86.952 72.5325 89.6312 73.4439 86.3716 71.5879C129.52 61.2001 104.521 62.7361 138.672 70.2638C139.778 68.2776 134.482 63.4225 136.909 57.2454C137.832 54.8951 137.606 52.803 137.143 50.8433H85.0475Z" fill="url(#paint1_linear_386_31)"/>
<path fill-rule="evenodd" clip-rule="evenodd" d="M55.0339 66.5121V70.4845C47.8196 70.3344 35.3485 70.2505 23.5726 70.458C15.7934 72.6604 2.05118 84.401 0.0826416 91.3064V94.1179C0.144434 94.2636 0.217261 94.4048 0.303329 94.5394C4.40812 95.7598 8.04947 97.2164 8.45995 98.7325H66.289V94.7601H137.194C136.452 91.4719 134.949 88.572 136.909 85.4912C138.924 81.1525 139.868 78.1754 139.999 76.2135V75.3418C139.434 68.0459 123.608 79.6607 114.84 79.7534C104.909 77.9856 106.896 76.6637 93.6542 73.7948C86.952 72.5324 89.6311 73.4439 86.3715 71.5879C94.5745 69.6127 100.315 68.0701 104.468 66.9159V66.5121H55.0339Z" fill="url(#paint2_linear_386_31)"/>
<path fill-rule="evenodd" clip-rule="evenodd" d="M49.7374 35.1743H49.958C55.2479 44.5425 51.878 51.7347 49.0753 60.9948C48.2852 62.8684 51.1365 64.3184 51.9442 62.3189C54.193 53.7165 57.7549 44.2601 53.489 35.6157H53.9304C74.3507 35.7724 95.0159 39.48 113.516 48.4156C114.745 48.6937 118.7 51.7347 119.475 49.2984C110.563 38.7583 75.8866 32.7556 61.2131 33.1859C60.5753 33.3073 59.0482 33.1131 57.3025 32.9211C55.9343 32.7688 54.4292 32.6188 53.1073 32.6188C50.651 32.6188 48.8369 33.144 49.7374 35.1743Z" fill="#974DFF"/>
<path fill-rule="evenodd" clip-rule="evenodd" d="M49.7373 35.1744H49.958C53.147 41.208 53.9657 48.5834 50.8408 54.8156H53.9304C55.537 48.5547 56.0755 41.8458 53.2684 35.8365C73.9313 35.8983 94.8945 39.2814 113.516 48.6364C114.741 48.8526 118.93 52.174 119.475 49.5191C110.109 38.7805 76.3037 32.7579 61.2131 33.186C60.4848 33.3251 58.9709 33.122 57.2716 32.9168C55.9607 32.7601 54.5373 32.6012 53.2816 32.6012C50.9732 32.6012 49.2209 33.1331 49.7373 35.1744Z" fill="#F1A5FF"/>
<path fill-rule="evenodd" clip-rule="evenodd" d="M41.7927 36.2779H42.0134C46.2991 42.1107 46.1093 49.1616 43.3375 55.4777C42.4084 57.0137 44.7168 58.5497 45.5444 56.8018C47.0936 53.5335 48.1617 49.8391 48.1926 46.2088C48.2235 42.1239 46.3587 37.911 44.2203 34.5124C43.94 34.007 43.5339 33.7996 43.1168 33.7996C42.0487 33.7996 40.9298 35.1634 41.7927 36.2779Z" fill="#974DFF"/>
<path fill-rule="evenodd" clip-rule="evenodd" d="M46.4271 54.8158C47.7071 49.4752 48.656 43.7969 45.765 38.7056C45.3611 37.8692 44.1694 35.4549 44.2202 34.5125C43.2999 32.8088 40.8503 34.5037 41.7926 36.0573H42.0133C45.9371 41.6606 46.4271 48.6432 43.5581 54.8158H46.4271Z" fill="#F1A5FF"/>
<path fill-rule="evenodd" clip-rule="evenodd" d="M41.7926 36.0572H42.0133C45.9349 41.6604 46.427 48.6452 43.5581 54.8156H46.427C47.707 49.475 48.656 43.7967 45.765 38.7054C45.3611 37.869 44.1672 35.4547 44.2202 34.5124C43.9465 34.007 43.5404 33.8018 43.1278 33.8018C42.1457 33.8018 41.1305 34.9648 41.7926 36.0572Z" fill="#F1A5FF"/>
<path fill-rule="evenodd" clip-rule="evenodd" d="M66.0682 94.7601V98.7325H8.45992C8.79536 99.975 6.95483 101.259 1.40674 102.484C12.0946 112.87 25.3977 116.149 37.1559 113.519C38.9943 121.805 54.4755 126.548 64.7441 123.229C64.8854 121.108 64.508 118.989 63.6407 117.05C77.992 119.493 113.015 108.48 114.84 107.56C116.493 107.253 121.578 109.07 126.634 110.888C132.378 112.954 138.085 115.017 138.672 113.96C139.778 111.974 134.481 107.119 136.909 100.939C137.796 98.6795 137.622 96.6558 137.194 94.7601H66.0682Z" fill="url(#paint3_linear_386_31)"/>
<path fill-rule="evenodd" clip-rule="evenodd" d="M49.7374 79.3119H49.958C55.2987 88.7353 51.7765 96.018 49.0753 105.353C48.2852 107.229 51.1365 108.677 51.9442 106.677C54.3586 98.1763 57.6623 88.7463 53.489 80.1925L53.9304 79.974C74.344 80.1395 95.0335 83.505 113.516 92.5532C114.745 92.8312 118.7 95.8701 119.475 93.4359C110.563 82.8981 75.8866 76.8932 61.2131 77.3257C60.5753 77.4471 59.0504 77.2529 57.3069 77.0609C55.9365 76.9086 54.4292 76.7563 53.1073 76.7563C50.651 76.7563 48.8369 77.2838 49.7374 79.3119Z" fill="#373FFF"/>
<path fill-rule="evenodd" clip-rule="evenodd" d="M49.7374 79.3119H49.9581C53.1184 85.2815 53.9636 92.5664 50.8409 98.7324H53.9305C55.5481 92.4737 56.0756 85.7626 53.2684 79.7533C73.9093 79.8239 94.8129 83.5248 113.516 92.5532C114.741 92.8312 118.705 95.8723 119.475 93.4359C110.566 82.8981 75.8867 76.891 61.2132 77.3257C60.5754 77.4471 59.0526 77.2529 57.307 77.0609C55.9365 76.9086 54.4292 76.7563 53.1073 76.7563C50.6511 76.7563 48.837 77.2838 49.7374 79.3119Z" fill="#F1A5FF"/>
<path fill-rule="evenodd" clip-rule="evenodd" d="M41.7925 80.4159H42.0132C46.2989 86.2487 46.1091 93.2996 43.3373 99.6157C42.4082 101.152 44.7166 102.688 45.5442 100.94C47.0934 97.6715 48.1615 93.9794 48.1924 90.3468C48.2785 86.1471 46.182 82.0335 44.2201 78.4297C43.1299 76.5119 40.294 78.8975 41.7925 80.4159Z" fill="#373FFF"/>
<path fill-rule="evenodd" clip-rule="evenodd" d="M46.4271 98.7324C46.9965 95.1198 48.3582 91.4497 47.5306 87.698C47.4202 85.5154 41.9494 72.5721 41.3513 80.1946H42.0134C45.9747 85.7979 46.4315 92.7694 43.5582 98.9531L46.4271 98.7324Z" fill="#F1A5FF"/>
<path fill-rule="evenodd" clip-rule="evenodd" d="M41.3513 80.1925H42.0134C45.9747 85.7979 46.4315 92.7695 43.5582 98.9531L46.4271 98.7325C46.9965 95.122 48.3582 91.4498 47.5306 87.6981C47.4445 86.001 44.1254 77.8157 42.3665 77.8157C41.8611 77.8157 41.4859 78.491 41.3513 80.1925Z" fill="#F1A5FF"/>
<path fill-rule="evenodd" clip-rule="evenodd" d="M23.9165 37.8224C27.2069 37.8224 29.875 40.4905 29.875 43.781C29.875 47.0714 27.2069 49.7395 23.9165 49.7395C20.626 49.7395 17.9579 47.0714 17.9579 43.781C17.9579 40.4905 20.626 37.8224 23.9165 37.8224Z" fill="black"/>
<path fill-rule="evenodd" clip-rule="evenodd" d="M17.7377 43.3396C17.859 39.8064 20.8207 37.0412 24.3539 37.1648C27.8871 37.2861 30.6523 40.25 30.5287 43.781C30.4118 47.2259 27.5848 49.958 24.1376 49.9602C20.856 50.2118 17.9915 47.7556 17.7399 44.4761C17.7377 44.4651 17.7377 44.4541 17.7377 44.443C18.0819 46.9192 20.3263 48.678 22.8135 48.4154C25.6162 48.4154 27.8893 46.1445 27.8893 43.3396C27.8893 40.5369 25.6162 38.2638 22.8135 38.2638C20.0108 38.2638 17.7377 40.5369 17.7377 43.3396Z" fill="white"/>
<path fill-rule="evenodd" clip-rule="evenodd" d="M20.3864 43.3396C21.3596 43.3396 22.1519 44.1297 22.1519 45.1051C22.1519 46.0805 21.3596 46.8706 20.3864 46.8706C19.4109 46.8706 18.6208 46.0805 18.6208 45.1051C18.6208 44.1297 19.4109 43.3396 20.3864 43.3396Z" fill="white"/>
<path fill-rule="evenodd" clip-rule="evenodd" d="M23.9165 81.9611C27.2069 81.9611 29.875 84.627 29.875 87.9174C29.875 91.2079 27.2069 93.876 23.9165 93.876C20.626 93.876 17.9579 91.2079 17.9579 87.9174C17.9579 84.627 20.626 81.9611 23.9165 81.9611Z" fill="black"/>
<path fill-rule="evenodd" clip-rule="evenodd" d="M17.7377 87.2562C17.859 83.723 20.8207 80.9578 24.3539 81.0814C27.8871 81.2028 30.6523 84.1666 30.5287 87.6976C30.4118 91.1447 27.5848 93.8747 24.1376 93.8769C20.856 94.1284 17.9915 91.6744 17.7399 88.3928C17.7377 88.3817 17.7377 88.3707 17.7377 88.3597C17.9672 90.9086 20.2226 92.7889 22.7716 92.5571C22.787 92.5549 22.798 92.5527 22.8135 92.5527C25.6162 92.5505 27.8871 90.2752 27.8849 87.4725C27.8827 84.6698 25.6074 82.3989 22.8025 82.4011C20.088 82.4055 17.8568 84.544 17.7377 87.2562Z" fill="white"/>
<path fill-rule="evenodd" clip-rule="evenodd" d="M20.3864 87.4783C21.3596 87.4783 22.1519 88.2661 22.1519 89.2438C22.1519 90.217 21.3596 91.0093 20.3864 91.0093C19.4109 91.0093 18.6208 90.217 18.6208 89.2438C18.6208 88.2661 19.4109 87.4783 20.3864 87.4783Z" fill="white"/>
<defs>
<linearGradient id="paint0_linear_386_31" x1="6761.31" y1="15.3124" x2="6761.31" y2="3985.48" gradientUnits="userSpaceOnUse">
<stop stop-color="#E459FF"/>
<stop offset="1" stop-color="#914DFF"/>
</linearGradient>
<linearGradient id="paint1_linear_386_31" x1="3253.1" y1="1131.72" x2="7319.37" y2="3847.2" gradientUnits="userSpaceOnUse">
<stop stop-color="#F0A5FF"/>
<stop offset="1" stop-color="#FF676B"/>
</linearGradient>
<linearGradient id="paint2_linear_386_31" x1="6995.88" y1="-4.10828" x2="6995.88" y2="3387.86" gradientUnits="userSpaceOnUse">
<stop stop-color="#6E3BFF"/>
<stop offset="1" stop-color="#3633FF"/>
</linearGradient>
<linearGradient id="paint3_linear_386_31" x1="5576.46" y1="1502.85" x2="6623.36" y2="2756.62" gradientUnits="userSpaceOnUse">
<stop stop-color="#F0A5FF"/>
<stop offset="1" stop-color="#FF676B"/>
</linearGradient>
</defs>
</svg>
