<svg width="140" height="140" viewBox="0 0 140 140" fill="none" xmlns="http://www.w3.org/2000/svg">
<g clip-path="url(#clip0_365_64)">
<path d="M139.427 78.8884C144.327 40.5353 117.241 5.47163 78.9584 0.572513C40.6753 -4.3266 5.47163 22.7585 0.572513 61.0416C-4.3266 99.3247 22.7585 134.458 61.0416 139.427C99.3947 144.327 134.458 117.241 139.427 78.8884Z" fill="#FF6C37"/>
<path d="M95.2655 44.9445L65.7308 74.4791L57.4023 66.1506C86.4471 37.1059 89.3166 39.6254 95.2655 44.9445Z" fill="white"/>
<path d="M65.7307 75.1791C65.5207 75.1791 65.3807 75.1091 65.2408 74.9691L56.8423 66.6406C56.5623 66.3606 56.5623 65.9407 56.8423 65.6608C86.377 36.1261 89.4564 38.9256 95.6853 44.5246C95.8253 44.6646 95.8953 44.8045 95.8953 45.0145C95.8953 45.2245 95.8253 45.3644 95.6853 45.5044L66.1506 74.9691C66.0806 75.1091 65.8707 75.1791 65.7307 75.1791ZM58.382 66.1507L65.7307 73.4994L94.2156 45.0145C89.0365 40.3953 85.5371 38.9956 58.382 66.1507Z" fill="#FF6C37"/>
<path d="M74.1992 82.9477L66.1506 74.8991L95.6853 45.3644C103.594 53.343 91.766 66.2907 74.1992 82.9477Z" fill="white"/>
<path d="M74.1992 83.6475C73.9892 83.6475 73.8493 83.5775 73.7093 83.4376L65.6607 75.389C65.5208 75.249 65.5208 75.1091 65.5208 74.8991C65.5208 74.6891 65.5907 74.5492 65.7307 74.4092L95.2654 44.8745C95.5453 44.5946 95.9653 44.5946 96.2452 44.8745C98.0649 46.5542 99.0447 48.9338 98.9747 51.3833C98.8347 59.1519 90.0163 69.0202 74.7591 83.4376C74.5491 83.5775 74.3392 83.6475 74.1992 83.6475ZM67.1305 74.8991C71.6097 79.4483 73.4993 81.268 74.1992 81.9678C85.9571 70.7698 97.365 59.2919 97.435 51.3833C97.505 49.5637 96.8051 47.744 95.6153 46.3442L67.1305 74.8991Z" fill="#FF6C37"/>
<path d="M57.5423 66.3607L63.4913 72.3096C63.6312 72.4496 63.6312 72.5895 63.4913 72.7295C63.4213 72.7995 63.4213 72.7995 63.3513 72.7995L51.0335 75.459C50.4036 75.529 49.8437 75.1091 49.7038 74.4792C49.6338 74.1293 49.7737 73.7793 49.9837 73.5694L57.1224 66.4306C57.2624 66.2907 57.4724 66.2207 57.5423 66.3607Z" fill="white"/>
<path d="M50.8236 76.1589C49.7738 76.1589 49.0039 75.319 49.0039 74.2692C49.0039 73.7793 49.2139 73.2894 49.5638 72.9394L56.7025 65.8007C57.1224 65.4508 57.6823 65.4508 58.1023 65.8007L64.0512 71.7496C64.4711 72.0996 64.4711 72.7295 64.0512 73.1494C63.9112 73.2894 63.7712 73.3594 63.5613 73.4293L51.2435 76.0889C51.1035 76.0889 50.9636 76.1589 50.8236 76.1589ZM57.3324 67.1305L50.4736 73.9892C50.3337 74.1292 50.2637 74.3392 50.4037 74.5491C50.4736 74.7591 50.6836 74.8291 50.8936 74.7591L62.4415 72.2396L57.3324 67.1305Z" fill="#FF6C37"/>
<path d="M110.873 28.5675C106.393 24.2282 99.1847 24.3682 94.8455 28.9174C90.5063 33.4666 90.6463 40.6053 95.1955 44.9445C98.9048 48.5139 104.504 49.1437 108.913 46.4842L100.934 38.5057L110.873 28.5675Z" fill="white"/>
<path d="M103.034 48.7938C96.3854 48.7938 90.9963 43.4048 90.9963 36.756C90.9963 30.1072 96.3854 24.7181 103.034 24.7181C106.114 24.7181 109.123 25.9079 111.363 28.0775C111.503 28.2175 111.573 28.3575 111.573 28.5674C111.573 28.7774 111.503 28.9174 111.363 29.0574L101.914 38.5057L109.333 45.9243C109.613 46.2043 109.613 46.6242 109.333 46.9041C109.263 46.9741 109.263 46.9741 109.193 47.0441C107.373 48.1639 105.204 48.7938 103.034 48.7938ZM103.034 26.1879C97.1552 26.1879 92.3961 30.947 92.4661 36.826C92.4661 42.7049 97.2252 47.464 103.104 47.3941C104.714 47.3941 106.324 47.0441 107.793 46.2743L100.445 38.9956C100.305 38.8556 100.235 38.7156 100.235 38.5057C100.235 38.2957 100.305 38.1557 100.445 38.0157L109.823 28.6374C107.933 27.0277 105.554 26.1879 103.034 26.1879Z" fill="#FF6C37"/>
<path d="M111.082 28.7774L110.943 28.6375L100.934 38.5057L108.843 46.4142C109.613 45.9243 110.383 45.3644 111.013 44.7345C115.492 40.3253 115.492 33.1866 111.082 28.7774Z" fill="white"/>
<path d="M108.913 47.1841C108.703 47.1841 108.563 47.1141 108.423 46.9741L100.445 38.9955C100.305 38.8556 100.235 38.7156 100.235 38.5056C100.235 38.2957 100.305 38.1557 100.445 38.0157L110.383 28.0775C110.663 27.7976 111.083 27.7976 111.363 28.0775L111.573 28.2175C116.262 32.9066 116.262 40.4653 111.643 45.2244C110.943 45.9243 110.173 46.5542 109.333 47.0441C109.123 47.1141 108.983 47.1841 108.913 47.1841ZM101.914 38.5056L108.983 45.5744C109.543 45.2244 110.103 44.7345 110.523 44.3146C114.512 40.3253 114.722 33.8165 110.873 29.6172L101.914 38.5056Z" fill="#FF6C37"/>
<path d="M96.4553 46.2043C94.7756 44.5246 92.0461 44.5246 90.3664 46.2043L63.9812 72.5895L68.3904 76.9987L96.3154 52.5032C98.135 50.9634 98.275 48.2339 96.7353 46.4143C96.5953 46.3443 96.5253 46.2743 96.4553 46.2043Z" fill="white"/>
<path d="M68.3203 77.6986C68.1103 77.6986 67.9703 77.6286 67.8303 77.4886L63.4211 73.0794C63.1412 72.7995 63.1412 72.3796 63.4211 72.0996L89.8064 45.7144C91.766 43.7547 94.9155 43.7547 96.8751 45.7144C98.8348 47.674 98.8348 50.8234 96.8751 52.7831C96.8051 52.8531 96.7351 52.9231 96.6652 52.9931L68.7402 77.4886C68.6702 77.6286 68.5302 77.6986 68.3203 77.6986ZM64.9609 72.5895L68.3902 76.0189L95.8253 51.9432C97.365 50.6835 97.505 48.3739 96.2452 46.8342C94.9855 45.2944 92.6759 45.1545 91.1361 46.4142C91.0662 46.4842 90.9962 46.5542 90.8562 46.6242L64.9609 72.5895Z" fill="#FF6C37"/>
<path d="M43.7549 102.614C43.4749 102.754 43.3349 103.034 43.4049 103.314L44.5947 108.353C44.8747 109.053 44.4547 109.893 43.6849 110.103C43.125 110.313 42.4951 110.103 42.1451 109.683L34.4465 102.054L59.572 76.9287L68.2504 77.0687L74.1294 82.9476C72.7296 84.1374 64.2612 92.3259 43.7549 102.614Z" fill="white"/>
<path d="M43.1948 110.803C42.6349 110.803 42.075 110.593 41.7251 110.173L34.0964 102.544C33.9565 102.404 33.8865 102.264 33.8865 102.054C33.8865 101.844 33.9565 101.704 34.0964 101.564L59.2219 76.4388C59.3619 76.2989 59.5718 76.2289 59.7118 76.2289L68.3903 76.3689C68.6002 76.3689 68.7402 76.4388 68.8802 76.5788L74.7591 82.4578C74.8991 82.5977 74.9691 82.8077 74.9691 83.0177C74.9691 83.2276 74.8991 83.3676 74.6891 83.5076L74.1992 83.9275C66.7805 90.4363 56.7024 96.9451 44.1746 103.174L45.3644 108.143C45.5744 109.053 45.1544 110.033 44.3146 110.523C43.8947 110.733 43.5447 110.803 43.1948 110.803ZM35.4962 102.054L42.7049 109.193C42.9148 109.543 43.3348 109.683 43.6847 109.473C44.0346 109.263 44.1746 108.843 43.9647 108.493L42.7749 103.454C42.6349 102.824 42.9148 102.264 43.4747 101.984C55.8625 95.7554 65.8707 89.3165 73.2194 82.9477L68.0403 77.7686L59.9918 77.6286L35.4962 102.054Z" fill="#FF6C37"/>
<path d="M28.4975 108.073L34.5164 102.054L43.4748 111.013L29.1974 110.033C28.5675 109.963 28.1476 109.403 28.2176 108.773C28.2176 108.493 28.2876 108.213 28.4975 108.073Z" fill="white"/>
<path d="M43.4748 111.642L29.1274 110.663C28.0776 110.593 27.3777 109.683 27.4477 108.633C27.5177 108.213 27.6576 107.793 28.0076 107.513L34.0265 101.494C34.3064 101.214 34.7264 101.214 35.0063 101.494L43.9647 110.453C44.1747 110.663 44.2447 110.943 44.1047 111.223C43.9647 111.503 43.7547 111.642 43.4748 111.642ZM34.5164 103.034L28.9874 108.563C28.7774 108.703 28.7774 109.053 28.9874 109.193C29.0574 109.263 29.1274 109.333 29.2674 109.333L41.6551 110.173L34.5164 103.034Z" fill="#FF6C37"/>
<path d="M57.1222 80.1481C56.7023 80.1481 56.4224 79.7982 56.4224 79.4482C56.4224 79.2383 56.4924 79.0983 56.6323 78.9583L63.4211 72.1696C63.701 71.8896 64.121 71.8896 64.4009 72.1696L68.8101 76.5788C69.0201 76.7887 69.0901 76.9987 69.0201 77.2786C68.9501 77.4886 68.7401 77.6986 68.4602 77.7685L57.2622 80.1481C57.1922 80.1481 57.1222 80.1481 57.1222 80.1481ZM63.911 73.6393L59.2918 78.2585L66.8505 76.6487L63.911 73.6393Z" fill="#FF6C37"/>
<path d="M68.2502 77.0687L60.5516 78.7484C59.9917 78.8884 59.4318 78.5384 59.2918 77.9785C59.2219 77.6286 59.2918 77.2787 59.5718 76.9987L63.841 72.7295L68.2502 77.0687Z" fill="white"/>
<path d="M60.4118 79.4482C59.432 79.4482 58.6621 78.6784 58.6621 77.6986C58.6621 77.2086 58.8721 76.7887 59.152 76.4388L63.4212 72.1696C63.7012 71.8896 64.1211 71.8896 64.4011 72.1696L68.8103 76.5788C69.0202 76.7887 69.0902 76.9987 69.0202 77.2786C68.9503 77.4886 68.7403 77.6986 68.4603 77.7685L60.7617 79.4482C60.6218 79.4482 60.4818 79.4482 60.4118 79.4482ZM63.9112 73.6393L60.1318 77.4186C59.9919 77.5586 59.9919 77.6986 60.0619 77.8385C60.1318 77.9785 60.2718 78.0485 60.4818 78.0485L66.9206 76.6487L63.9112 73.6393Z" fill="#FF6C37"/>
<path d="M111.153 35.4962C111.013 35.0762 110.523 34.8663 110.103 35.0063C109.683 35.1462 109.473 35.6361 109.613 36.0561C109.613 36.1261 109.683 36.196 109.683 36.266C110.103 37.1059 109.963 38.1557 109.403 38.9256C109.123 39.2755 109.193 39.7654 109.473 40.0454C109.823 40.3253 110.313 40.2553 110.593 39.9054C111.642 38.5756 111.852 36.8959 111.153 35.4962Z" fill="#FF6C37"/>
</g>
<defs>
<clipPath id="clip0_365_64">
<rect width="140" height="140" fill="white"/>
</clipPath>
</defs>
</svg>
