<svg width="140" height="140" viewBox="0 0 140 140" fill="none" xmlns="http://www.w3.org/2000/svg">
<g clip-path="url(#clip0_385_5)">
<path d="M63.164 0.300817C49.4375 1.80472 36.5312 7.10941 26.1132 15.5039C22.5859 18.3477 16.8164 24.2813 14.2734 27.6719C7.02731 37.3516 2.40622 48.3985 0.656215 60.293C0.0546527 64.3125 -0.136754 71.9961 0.246059 76.0157C1.3945 87.8555 5.16793 98.793 11.3203 108.117C22.6406 125.316 39.9492 136.336 60.2929 139.344C64.3125 139.945 71.9961 140.137 76.0156 139.754C87.8554 138.606 98.7929 134.832 108.117 128.68C125.316 117.359 136.336 100.051 139.344 79.7071C139.945 75.6875 140.137 68.0039 139.754 63.9844C138.359 49.6563 133.246 36.9688 124.496 26.1133C121.652 22.586 115.719 16.8164 112.328 14.2735C102.648 7.02738 91.6836 2.46097 79.707 0.656286C76.3984 0.164099 66.3906 -0.0546513 63.164 0.300817ZM88.0195 64.5039C97.5078 81.1016 105.273 94.7188 105.273 94.7735C105.273 94.8282 89.7148 94.8828 70.6836 94.8828C51.6523 94.8828 36.0937 94.8282 36.0937 94.7461C36.0937 94.5274 70.6289 34.1524 70.7109 34.2618C70.7382 34.2891 78.5586 47.9063 88.0195 64.5039Z" fill="black"/>
</g>
<defs>
<clipPath id="clip0_385_5">
<rect width="140" height="140" fill="white"/>
</clipPath>
</defs>
</svg>
