<svg width="140" height="140" viewBox="0 0 140 140" fill="none" xmlns="http://www.w3.org/2000/svg">
<path d="M70 131.25C103.827 131.25 131.25 103.827 131.25 70C131.25 36.1726 103.827 8.75 70 8.75C36.1726 8.75 8.75 36.1726 8.75 70C8.75 103.827 36.1726 131.25 70 131.25Z" fill="#0769AD"/>
<path d="M99.1256 58.7173C104.625 58.7173 109.66 56.8833 113.553 53.8414C109.511 59.1666 102.816 62.6483 95.2389 62.6483C82.8961 62.6483 72.8905 53.4087 72.8905 42.0112C72.8905 35.6917 75.9666 30.0356 80.8114 26.25C78.2691 29.5999 76.7773 33.6792 76.7773 38.0803C76.7773 49.4778 86.7829 58.7173 99.1256 58.7173Z" fill="#78CFF5"/>
<path d="M113.34 72.8814C107.411 77.532 99.736 80.3372 91.3522 80.3372C72.5699 80.3372 57.3436 66.258 57.3436 48.8902C57.3436 42.1541 59.6343 35.9126 63.5342 30.7953C56.1807 36.5637 51.5134 45.171 51.5134 54.7864C51.5134 72.1542 66.7397 86.2339 85.522 86.2339C97.02 86.2339 107.185 80.958 113.34 72.8814Z" fill="#78CFF5"/>
<path d="M113.75 90.8692C105.301 98.9315 93.5974 103.923 80.6641 103.923C54.9049 103.923 34.0234 84.1238 34.0234 59.7004C34.0234 51.961 36.1201 44.6863 39.8043 38.3586C31.4266 46.3532 26.25 57.3672 26.25 69.5275C26.25 93.951 47.1314 113.75 72.8906 113.75C90.4868 113.75 105.808 104.51 113.75 90.8692Z" fill="#78CFF5"/>
</svg>
