<svg width="130" height="130" viewBox="0 0 130 130" fill="none" xmlns="http://www.w3.org/2000/svg">
<g clip-path="url(#clip0_347_389)">
<path d="M65 130C100.899 130 130 100.899 130 65C130 29.1015 100.899 0 65 0C29.1015 0 0 29.1015 0 65C0 100.899 29.1015 130 65 130Z" fill="#13AA52"/>
<path d="M82.3748 57.0578C78.2691 38.9378 68.5661 32.9799 67.5213 30.7036C66.3787 29.0977 65.2209 26.2412 65.2209 26.2412C65.2019 26.193 65.1714 26.1079 65.1358 26.0254C65.0178 27.6313 64.9568 28.2509 63.4385 29.8708C61.0873 31.7091 49.0242 41.8311 48.0429 62.4178C47.1275 81.6182 61.9125 93.0592 63.912 94.5179L64.1393 94.6791V94.6651C64.152 94.7616 64.774 99.2355 65.2107 103.976H66.7773C67.1449 100.625 67.6959 97.2968 68.4277 94.0062L68.5547 93.9237C69.4491 93.2824 70.3018 92.5849 71.1077 91.8354L71.1991 91.7528C75.4495 87.8262 83.0908 78.7439 83.0159 64.2637C83.0001 61.8482 82.7857 59.4381 82.3748 57.0578ZM65.0444 83.6773C65.0444 83.6773 65.0444 56.748 65.9331 56.7531C66.6263 56.7531 67.5238 91.4888 67.5238 91.4888C66.2898 91.3402 65.0444 85.7721 65.0444 83.6773Z" fill="white"/>
</g>
<defs>
<clipPath id="clip0_347_389">
<rect width="130" height="130" fill="white"/>
</clipPath>
</defs>
</svg>
